<svg xmlns="http://www.w3.org/2000/svg" width="16" height="17" viewBox="0 0 16 17" fill="none"><path d="M6.25992 4.34002C6.37992 4.50669 6.46659 4.66002 6.52659 4.80669C6.58659 4.94669 6.61992 5.08669 6.61992 5.21335C6.61992 5.37335 6.57325 5.53335 6.47992 5.68669C6.39325 5.84002 6.26659 6.00002 6.10659 6.16002L5.59992 6.68669C5.52659 6.76002 5.49325 6.84669 5.49325 6.95335C5.49325 7.00669 5.49992 7.05335 5.51325 7.10669C5.53325 7.16002 5.55325 7.20002 5.56659 7.24002C5.68659 7.46002 5.89325 7.74669 6.18659 8.09335C6.48659 8.44002 6.80659 8.79335 7.15325 9.14669C7.51325 9.50002 7.85992 9.82669 8.21325 10.1267C8.55992 10.42 8.84659 10.62 9.07325 10.74C9.10659 10.7534 9.14659 10.7734 9.19325 10.7934C9.24659 10.8134 9.29992 10.82 9.35992 10.82C9.47325 10.82 9.55992 10.78 9.63325 10.7067L10.1399 10.2067C10.3066 10.04 10.4666 9.91335 10.6199 9.83335C10.7733 9.74002 10.9266 9.69335 11.0933 9.69335C11.2199 9.69335 11.3533 9.72002 11.4999 9.78002C11.6466 9.84002 11.7999 9.92669 11.9666 10.04L14.1733 11.6067C14.3466 11.7267 14.4666 11.8667 14.5399 12.0334C14.6066 12.2 14.6466 12.3667 14.6466 12.5534C14.6466 12.7934 14.5933 13.04 14.4799 13.28C14.3666 13.52 14.2199 13.7467 14.0266 13.96C13.6999 14.32 13.3399 14.58 12.9333 14.7467C12.5333 14.9134 12.0999 15 11.6333 15C10.9533 15 10.2266 14.84 9.45992 14.5134C8.69325 14.1867 7.92659 13.7467 7.16659 13.1934C6.39992 12.6334 5.67325 12.0134 4.97992 11.3267C4.29325 10.6334 3.67325 9.90669 3.11992 9.14669C2.57325 8.38669 2.13325 7.62669 1.81325 6.87335C1.49325 6.11335 1.33325 5.38669 1.33325 4.69335C1.33325 4.24002 1.41325 3.80669 1.57325 3.40669C1.73325 3.00002 1.98659 2.62669 2.33992 2.29335C2.76659 1.87335 3.23325 1.66669 3.72659 1.66669C3.91325 1.66669 4.09992 1.70669 4.26659 1.78669C4.43992 1.86669 4.59325 1.98669 4.71325 2.16002" stroke="#A1A1A1" style="stroke:#A1A1A1;stroke:color(display-p3 0.6314 0.6314 0.6314);stroke-opacity:1;" stroke-miterlimit="10" stroke-linecap="round" stroke-linejoin="round"></path></svg>