<svg width="22" height="23" viewBox="0 0 22 23" fill="none" xmlns="http://www.w3.org/2000/svg">
<path d="M18.3334 13.87V16.5833C18.3334 19.3333 16.6926 20.25 14.6667 20.25H7.33341C5.30758 20.25 3.66675 19.3333 3.66675 16.5833V7.64579C3.66675 4.66663 5.30758 3.97913 7.33341 3.97913C7.33341 4.54746 7.56256 5.06079 7.93839 5.43662C8.31422 5.81246 8.82758 6.04163 9.39591 6.04163H12.6042C13.7409 6.04163 14.6667 5.11579 14.6667 3.97913C16.6926 3.97913 18.3334 4.66663 18.3334 7.64579V9.31413" stroke="#A1A1A1" style="stroke:#A1A1A1;stroke:color(display-p3 0.6314 0.6314 0.6314);stroke-opacity:1;" stroke-width="1.5" stroke-linecap="round" stroke-linejoin="round"/>
<path d="M14.6666 3.97913C14.6666 5.11579 13.7408 6.04163 12.6041 6.04163H9.39575C8.82742 6.04163 8.31406 5.81246 7.93823 5.43662C7.56239 5.06079 7.33325 4.54746 7.33325 3.97913C7.33325 2.84246 8.25909 1.91663 9.39575 1.91663H12.6041C13.1724 1.91663 13.6858 2.1458 14.0616 2.52163C14.4374 2.89746 14.6666 3.41079 14.6666 3.97913Z" stroke="#A1A1A1" style="stroke:#A1A1A1;stroke:color(display-p3 0.6314 0.6314 0.6314);stroke-opacity:1;" stroke-width="1.5" stroke-linecap="round" stroke-linejoin="round"/>
<path d="M7.33325 12H10.9999" stroke="#A1A1A1" style="stroke:#A1A1A1;stroke:color(display-p3 0.6314 0.6314 0.6314);stroke-opacity:1;" stroke-width="1.5" stroke-linecap="round" stroke-linejoin="round"/>
<path d="M7.33325 15.6667H14.6666" stroke="#A1A1A1" style="stroke:#A1A1A1;stroke:color(display-p3 0.6314 0.6314 0.6314);stroke-opacity:1;" stroke-width="1.5" stroke-linecap="round" stroke-linejoin="round"/>
</svg>
