<svg xmlns="http://www.w3.org/2000/svg" width="24" height="25" viewBox="0 0 24 25" fill="none"><path d="M12.6801 4.04725C13.1601 4.76012 13.4401 5.61355 13.4401 6.53726C13.4301 8.94694 11.5401 10.9048 9.16006 10.9851C9.06006 10.9751 8.94006 10.9751 8.83006 10.9851C6.45006 10.9048 4.56006 8.94694 4.56006 6.53726C4.56006 4.07737 6.54006 2.07935 9.00006 2.07935" stroke="white" style="stroke:white;stroke-opacity:1;" stroke-width="1.5" stroke-linecap="round" stroke-linejoin="round"></path><path d="M16.41 4.0874C18.35 4.0874 19.91 5.66374 19.91 7.60152C19.91 9.49915 18.41 11.0454 16.54 11.1156C16.46 11.1056 16.37 11.1056 16.28 11.1156" stroke="white" style="stroke:white;stroke-opacity:1;" stroke-width="1.5" stroke-linecap="round" stroke-linejoin="round"></path><path d="M4.15997 14.69C1.73997 16.3166 1.73997 18.9672 4.15997 20.5837C6.90997 22.4312 11.42 22.4312 14.17 20.5837C16.59 18.9572 16.59 16.3065 14.17 14.69C11.43 12.8527 6.91997 12.8527 4.15997 14.69Z" stroke="white" style="stroke:white;stroke-opacity:1;" stroke-width="1.5" stroke-linecap="round" stroke-linejoin="round"></path><path d="M18.3401 20.1519C19.0601 20.0013 19.7401 19.7101 20.3001 19.2784C21.8601 18.1037 21.8601 16.1659 20.3001 14.9912C19.7501 14.5695 19.0801 14.2883 18.3701 14.1277" stroke="white" style="stroke:white;stroke-opacity:1;" stroke-width="1.5" stroke-linecap="round" stroke-linejoin="round"></path></svg>